<svg width="393" height="455" viewBox="0 0 393 455" fill="none" xmlns="http://www.w3.org/2000/svg">
<path fill-rule="evenodd" clip-rule="evenodd" d="M0 196.923V193.672C0 86.7103 87.2438 0 194.864 0H198.136C305.756 0 393 86.7103 393 193.672V196.924C393 303.886 305.756 390.596 198.136 390.596H194.864C87.2438 390.598 0 303.886 0 196.924" fill="#E4EBF7"/>
<path fill-rule="evenodd" clip-rule="evenodd" d="M62.055 202.365C61.8978 204.052 61.4059 205.692 60.6078 207.19C59.8096 208.688 58.721 210.014 57.4047 211.091C56.0885 212.169 54.5705 212.977 52.9386 213.468C51.3066 213.96 49.5928 214.125 47.8961 213.955C46.1994 213.785 44.5534 213.283 43.053 212.478C41.5525 211.673 40.2274 210.58 39.1539 209.263C38.0805 207.946 37.28 206.431 36.7987 204.805C36.3174 203.179 36.1647 201.474 36.3495 199.789C36.7189 196.422 38.412 193.337 41.06 191.204C43.7081 189.072 47.0966 188.067 50.4874 188.406C53.8781 188.746 56.9965 190.404 59.1632 193.018C61.3298 195.633 62.3693 198.992 62.055 202.365Z" fill="white"/>
<path d="M75.5069 226.672L55.7642 243.408M57.7153 207.728L74.0771 216.948L57.7153 207.728Z" stroke="white" stroke-width="2"/>
<path fill-rule="evenodd" clip-rule="evenodd" d="M62.2425 246.598C62.0073 248.918 60.8545 251.05 59.0377 252.525C57.2208 254.001 54.8888 254.698 52.5545 254.464C50.2203 254.231 48.075 253.085 46.5907 251.279C45.1064 249.473 44.4046 247.156 44.6398 244.836C44.7562 243.687 45.0992 242.572 45.649 241.555C46.1989 240.538 46.945 239.639 47.8446 238.908C48.7442 238.178 49.7797 237.631 50.8921 237.298C52.0045 236.965 53.1719 236.854 54.3277 236.969C55.4835 237.085 56.6051 237.426 57.6284 237.972C58.6516 238.519 59.5566 239.26 60.2915 240.154C61.0265 241.049 61.5771 242.078 61.9118 243.183C62.2465 244.289 62.3589 245.449 62.2425 246.598ZM89.8913 221.613C89.7835 222.777 89.4447 223.909 88.8945 224.943C88.3442 225.976 87.5934 226.891 86.6855 227.635C85.7775 228.379 84.7303 228.936 83.6044 229.276C82.4784 229.615 81.296 229.729 80.1253 229.612C78.9547 229.495 77.819 229.148 76.7838 228.592C75.7487 228.036 74.8345 227.282 74.0942 226.374C73.3538 225.465 72.8019 224.419 72.4703 223.297C72.1387 222.175 72.034 220.999 72.1622 219.837C72.4182 217.515 73.5864 215.388 75.4126 213.919C77.2387 212.45 79.5749 211.757 81.9127 211.991C84.2504 212.225 86.4004 213.367 87.8947 215.17C89.389 216.972 90.1066 219.287 89.8913 221.613ZM154.561 41.0746L201.108 41.0528C202.048 41.0525 202.979 40.8682 203.848 40.5102C204.717 40.1523 205.506 39.6278 206.171 38.9667C206.835 38.3056 207.363 37.5208 207.722 36.6573C208.082 35.7937 208.267 34.8681 208.266 33.9335C208.266 32.9989 208.081 32.0735 207.72 31.2101C207.36 30.3468 206.833 29.5624 206.167 28.9017C205.502 28.2411 204.713 27.7171 203.844 27.3597C202.975 27.0023 202.044 26.8185 201.103 26.8188L154.556 26.839C153.616 26.8393 152.685 27.0237 151.816 27.3817C150.947 27.7397 150.158 28.2642 149.493 28.9254C148.828 29.5866 148.301 30.3714 147.941 31.2351C147.582 32.0988 147.397 33.0244 147.397 33.9591C147.397 34.8938 147.583 35.8193 147.943 36.6828C148.303 37.5462 148.831 38.3307 149.496 38.9915C150.161 39.6522 150.951 40.1762 151.82 40.5336C152.689 40.8911 153.62 41.0749 154.561 41.0746ZM172.365 69.5208L218.912 69.5007C220.793 69.4723 222.587 68.7095 223.907 67.3773C225.226 66.045 225.966 64.2502 225.965 62.3806C225.964 60.5111 225.223 58.7169 223.902 57.3858C222.581 56.0546 220.787 55.2935 218.906 55.2667L172.359 55.2868C171.418 55.2873 170.487 55.4717 169.619 55.8298C168.75 56.1878 167.961 56.7124 167.296 57.3736C166.632 58.0347 166.104 58.8195 165.745 59.6832C165.385 60.5468 165.201 61.4723 165.201 62.4069C165.201 63.3416 165.387 64.267 165.747 65.1303C166.108 65.9936 166.635 66.7779 167.301 67.4385C167.966 68.0991 168.755 68.623 169.624 68.9803C170.493 69.3376 171.425 69.5213 172.365 69.5208Z" fill="white"/>
<path fill-rule="evenodd" clip-rule="evenodd" d="M176.071 41.0529V41.0498L200.709 41.0405C199.759 41.0269 198.817 41.201 197.936 41.5527C197.055 41.9044 196.253 42.4267 195.577 43.0892C194.901 43.7516 194.364 44.5411 193.998 45.4116C193.632 46.2821 193.443 47.2163 193.444 48.1599C193.444 49.1035 193.633 50.0375 194 50.9078C194.367 51.7781 194.904 52.5672 195.58 53.2292C196.257 53.8913 197.059 54.413 197.94 54.7642C198.821 55.1153 199.764 55.2888 200.713 55.2745L176.077 55.2854V55.2823C177.976 55.2815 179.796 54.5311 181.138 53.1963C182.48 51.8614 183.233 50.0514 183.232 48.1645C183.232 46.2776 182.477 44.4683 181.134 43.1346C179.79 41.8009 177.969 41.0521 176.071 41.0529ZM288.029 209.855C287.166 218.364 279.527 224.567 270.966 223.709C262.405 222.851 256.164 215.257 257.027 206.749C257.889 198.24 265.53 192.037 274.091 192.895C282.653 193.753 288.894 201.346 288.031 209.855" fill="white"/>
<path d="M301.271 242.138L277.458 262.323M279.814 219.291L299.544 230.409L279.814 219.291Z" stroke="white" stroke-width="2"/>
<path fill-rule="evenodd" clip-rule="evenodd" d="M288.255 263.206C288.13 264.603 287.727 265.962 287.07 267.204C286.412 268.446 285.513 269.546 284.425 270.44C283.337 271.334 282.082 272.004 280.731 272.412C279.38 272.82 277.961 272.958 276.557 272.817C275.152 272.676 273.789 272.26 272.548 271.592C271.306 270.924 270.211 270.017 269.324 268.925C268.438 267.833 267.778 266.577 267.384 265.23C266.989 263.883 266.867 262.471 267.026 261.077C267.341 258.304 268.743 255.767 270.928 254.014C273.113 252.262 275.905 251.437 278.698 251.717C281.492 251.997 284.062 253.36 285.85 255.511C287.639 257.661 288.503 260.426 288.255 263.206ZM317.4 237.248C317.27 238.652 316.861 240.016 316.197 241.263C315.533 242.509 314.627 243.612 313.532 244.508C312.437 245.405 311.174 246.077 309.816 246.486C308.458 246.895 307.032 247.033 305.62 246.891C304.209 246.749 302.839 246.332 301.591 245.661C300.343 244.991 299.24 244.082 298.347 242.986C297.454 241.89 296.789 240.629 296.388 239.277C295.988 237.924 295.862 236.505 296.016 235.104C296.323 232.303 297.732 229.736 299.935 227.963C302.138 226.19 304.957 225.353 307.778 225.636C310.598 225.919 313.192 227.298 314.995 229.473C316.797 231.648 317.662 234.442 317.4 237.248Z" fill="white"/>
<path fill-rule="evenodd" clip-rule="evenodd" d="M237.155 297.75C237.155 298.665 236.789 299.541 236.139 300.188C235.488 300.834 234.606 301.197 233.686 301.197C232.766 301.197 231.884 300.834 231.234 300.188C230.583 299.541 230.218 298.665 230.218 297.75C230.218 296.836 230.583 295.959 231.234 295.313C231.884 294.666 232.766 294.303 233.686 294.303C234.606 294.303 235.488 294.666 236.139 295.313C236.789 295.959 237.155 296.836 237.155 297.75V297.75ZM351.632 179.429C351.632 180.343 351.267 181.22 350.616 181.867C349.965 182.514 349.083 182.877 348.163 182.877C347.243 182.877 346.36 182.514 345.71 181.867C345.059 181.22 344.694 180.343 344.694 179.429C344.694 178.515 345.059 177.638 345.71 176.991C346.36 176.345 347.242 175.982 348.162 175.982C349.082 175.982 349.964 176.345 350.615 176.991C351.265 177.638 351.63 178.515 351.63 179.429H351.632ZM337.755 233.765C337.755 234.218 337.665 234.666 337.491 235.084C337.316 235.503 337.061 235.883 336.738 236.203C336.416 236.523 336.034 236.777 335.613 236.95C335.192 237.124 334.74 237.213 334.285 237.213C333.829 237.213 333.378 237.123 332.957 236.95C332.536 236.776 332.153 236.522 331.831 236.202C331.509 235.882 331.254 235.501 331.079 235.083C330.905 234.665 330.815 234.216 330.815 233.763C330.815 232.849 331.181 231.971 331.832 231.325C332.482 230.678 333.365 230.314 334.285 230.314C335.206 230.314 336.088 230.678 336.739 231.325C337.39 231.971 337.755 232.849 337.755 233.763V233.765ZM276.156 166.366C276.166 166.825 276.083 167.281 275.913 167.708C275.744 168.135 275.49 168.524 275.166 168.852C274.843 169.18 274.458 169.441 274.032 169.618C273.606 169.796 273.149 169.888 272.687 169.888C272.225 169.888 271.768 169.796 271.342 169.618C270.916 169.441 270.531 169.18 270.207 168.852C269.884 168.524 269.63 168.135 269.46 167.708C269.29 167.281 269.208 166.825 269.218 166.366C269.237 165.464 269.611 164.606 270.259 163.975C270.908 163.344 271.779 162.991 272.687 162.991C273.594 162.991 274.466 163.344 275.114 163.975C275.763 164.606 276.137 165.464 276.156 166.366ZM304.837 142.365C304.847 142.824 304.764 143.28 304.594 143.707C304.424 144.134 304.17 144.522 303.847 144.85C303.524 145.178 303.138 145.439 302.712 145.617C302.287 145.795 301.829 145.886 301.368 145.886C300.906 145.886 300.448 145.795 300.023 145.617C299.597 145.439 299.211 145.178 298.888 144.85C298.565 144.522 298.311 144.134 298.141 143.707C297.971 143.28 297.889 142.824 297.898 142.365C297.918 141.463 298.292 140.604 298.94 139.973C299.589 139.342 300.46 138.989 301.368 138.989C302.275 138.989 303.147 139.342 303.795 139.973C304.444 140.604 304.817 141.463 304.837 142.365V142.365ZM315.4 279.734C315.4 280.649 315.034 281.526 314.383 282.173C313.733 282.819 312.85 283.183 311.93 283.183C311.009 283.183 310.127 282.819 309.476 282.173C308.825 281.526 308.46 280.649 308.46 279.734C308.46 278.819 308.825 277.942 309.476 277.295C310.127 276.649 311.009 276.285 311.93 276.285C312.85 276.285 313.733 276.649 314.383 277.295C315.034 277.942 315.4 278.819 315.4 279.734V279.734Z" stroke="white" stroke-width="2"/>
<path d="M344.692 181.282L324.65 193.539L300.752 181.28V145.817M334.671 237.212L331.687 268.526L314.629 277.818L334.671 237.212ZM271.074 270.552L261.153 285.777H243.421L236.384 295.836L271.074 270.552ZM273.072 193.566V169.047V193.566Z" stroke="white" stroke-width="2"/>
<path fill-rule="evenodd" clip-rule="evenodd" d="M260.033 101.673H253.865C251.904 101.668 250.024 100.891 248.637 99.5129C247.25 98.1345 246.468 96.2664 246.462 94.3167C246.467 92.3668 247.249 90.4983 248.636 89.1196C250.024 87.7408 251.904 86.9638 253.865 86.9585H260.033C261.995 86.9638 263.875 87.7408 265.262 89.1196C266.649 90.4983 267.431 92.3668 267.436 94.3167C267.43 96.2664 266.649 98.1345 265.261 99.5129C263.874 100.891 261.994 101.668 260.033 101.673Z" fill="white"/>
<path fill-rule="evenodd" clip-rule="evenodd" d="M272.888 45.9684C272.888 20.7102 293.489 0.233398 318.904 0.233398C344.316 0.233398 364.92 20.7102 364.92 45.9684C364.92 71.225 344.316 91.7033 318.904 91.7033C293.489 91.7033 272.888 71.225 272.888 45.9684Z" fill="#1890FF"/>
<path fill-rule="evenodd" clip-rule="evenodd" d="M321.478 58.9341C322.258 59.7097 322.703 60.7057 322.703 61.9251C322.703 63.1445 322.257 64.1979 321.478 64.9721C320.585 65.7478 319.583 66.1356 318.356 66.1356C317.131 66.1356 316.125 65.6935 315.345 64.9178C314.452 64.1421 314.065 63.1445 314.065 61.9251C314.065 60.7057 314.452 59.7097 315.345 58.9341C316.125 58.1584 317.131 57.7705 318.358 57.7705C319.583 57.7705 320.64 58.1584 321.478 58.9341ZM328.166 28.7394C330.395 30.677 331.512 33.3361 331.512 36.7166C331.512 39.3726 330.845 41.5725 329.609 43.31C329.504 43.4589 329.395 43.5893 329.268 43.7211C328.619 44.3867 327.068 45.8093 324.654 47.9083C323.715 48.6352 322.954 49.5632 322.425 50.6233C321.862 51.76 321.575 53.0127 321.589 54.2799V55.0556H315.178V54.2799C315.178 52.1746 315.514 50.3456 316.292 48.85C317.017 47.3545 319.191 45.0274 322.814 41.8129L323.485 41.0372C324.489 39.8194 324.99 38.4883 324.99 37.1044C324.99 35.2738 324.431 33.8341 323.429 32.7838C322.371 31.7289 320.864 31.2309 318.968 31.2309C316.57 31.2309 314.844 31.9507 313.728 33.4494C313.15 34.2251 312.759 35.2102 312.542 36.4032C312.407 37.1156 312.025 37.7587 311.463 38.2206C310.901 38.6826 310.194 38.9343 309.465 38.932H309.459C307.465 38.932 305.936 37.0967 306.368 35.1621C306.894 32.8071 307.96 30.8492 309.604 29.2917C312.001 26.9646 315.234 25.801 319.36 25.801C322.981 25.801 325.937 26.7427 328.166 28.7394Z" fill="white"/>
<path fill-rule="evenodd" clip-rule="evenodd" d="M81.2316 117.49C81.2316 117.49 115.276 125.805 123.856 142.227C132.558 158.889 113.941 156.593 99.3026 149.883C82.3508 142.113 60.7475 131.542 81.2316 117.49Z" fill="#FFB594"/>
<path fill-rule="evenodd" clip-rule="evenodd" d="M141.238 104.106L140.538 108.594C139.362 109.354 133.126 104.463 133.126 104.463L130.559 105.623L128.458 96.8052C128.458 96.8052 139.095 89.6859 142.376 89.0203C146.204 88.2431 157.805 90.4786 159.078 92.5544C159.078 92.5544 161.139 93.3084 155.602 93.6248C150.064 93.9398 147.73 94.3183 145.003 98.4838C142.276 102.651 141.238 104.106 141.238 104.106Z" fill="#FFC6A0"/>
<path fill-rule="evenodd" clip-rule="evenodd" d="M199.885 172.155C195.785 160.172 190.286 151.707 185.967 148.142C180.503 143.634 171.387 144.69 168.225 141.647C166.243 139.737 163.207 139.79 163.207 139.79C163.207 139.79 139.824 134.89 136.939 134.392C133.24 133.756 133.624 133.285 127.489 132.213C125.039 129.254 122.936 130.472 122.936 130.472L111.838 128.326C110.506 126.043 108.056 126.739 108.056 126.739L104.203 125.348C101.635 140.824 92.1216 146.751 92.1216 146.751C94.9235 148.491 116.633 159.627 116.633 159.627L124.605 217.199C124.605 217.199 119.421 226.033 126.706 231.331C126.706 231.331 157.742 225.524 181.215 230.82C181.215 230.82 185.971 226.871 182.732 217.159C183.549 212.489 184.908 204.34 185.442 199.129C186.043 200.326 188.594 202.104 190.343 204.523C190.343 204.523 205.027 193.097 207.595 182.785C206.296 181.663 205.101 180.326 204.056 178.979C203.171 177.837 203.498 175.79 202.862 174.764C201.818 173.082 200.046 172.626 199.885 172.155Z" fill="white"/>
<path fill-rule="evenodd" clip-rule="evenodd" d="M157.795 449.281C157.795 449.281 164.499 452.447 169.274 450.865C173.677 449.407 176.345 451.901 180.325 452.693C184.306 453.484 191.055 454.399 198.566 450.738C198.405 442.19 187.813 444.563 179.897 440.323C175.897 438.182 173.991 432.998 174.281 426.673H159.605C159.605 426.673 157.432 442.993 157.795 449.281Z" fill="#CBD1D1"/>
<path fill-rule="evenodd" clip-rule="evenodd" d="M157.759 449.014C157.759 449.014 161.549 450.986 168.31 450.027C173.083 449.349 174.104 450.773 179.896 451.627C185.691 452.48 196.636 451.519 198.351 450.24C198.996 451.946 197.816 453.44 197.816 453.44C197.816 453.44 195.456 454.376 190.305 454.718C187.136 454.929 181.251 455.17 178.431 453.938C175.641 451.805 170.241 450.986 169.49 453.564C163.374 455.038 158.009 453.12 158.009 453.12L157.759 449.014Z" fill="#2B0849"/>
<path fill-rule="evenodd" clip-rule="evenodd" d="M169.114 427.633H173.943C173.943 427.633 173.783 438.03 181.024 440.91C173.781 441.868 167.665 437.337 169.114 427.633Z" fill="#A4AABA"/>
<path fill-rule="evenodd" clip-rule="evenodd" d="M89.8195 421.981C89.8195 421.981 86.5306 433.486 82.8187 441.072C80.0121 446.805 76.2237 452.695 91.3492 452.695C101.726 452.695 105.324 451.951 102.936 442.458C100.548 432.963 103.351 421.981 103.351 421.981H89.8195Z" fill="#CBD1D1"/>
<path fill-rule="evenodd" clip-rule="evenodd" d="M80.3508 448.963C80.3508 448.963 83.624 450.776 90.7045 450.776C100.2 450.776 103.581 448.217 103.581 448.217C103.581 448.217 104.52 449.945 102.614 451.575C101.064 452.902 96.9997 454.044 91.0791 453.974C84.609 453.899 81.9757 453.096 80.5646 452.162C79.2768 451.308 79.4923 449.711 80.3508 448.963Z" fill="#2B0849"/>
<path fill-rule="evenodd" clip-rule="evenodd" d="M91.1879 424.933C91.1879 424.933 91.2395 427.29 90.6978 429.479C90.153 431.682 89.0151 434.294 88.934 435.9C88.8434 437.686 96.0159 438.351 96.9806 435.953C97.9484 433.553 99.0004 425.982 99.9666 424.702C100.933 423.422 92.3134 421.415 91.1879 424.935" fill="#A4AABA"/>
<path fill-rule="evenodd" clip-rule="evenodd" d="M155.563 431.465L176.445 431.608C176.445 431.608 178.471 347.026 179.337 331.693C180.202 316.363 185.231 264.419 180.901 233.757L161.316 232.758L125.65 233.968C125.65 233.968 124.973 240.121 123.785 249.445C123.687 250.215 122.72 250.753 122.616 251.563C122.499 252.47 123.276 253.663 123.115 254.613C119.425 276.456 113.161 305.97 109.467 327.027C109.286 328.06 107.54 328.592 107.191 331.202C107.128 331.67 107.52 333.568 107.366 333.986C96.6372 363.066 90.2749 408.208 85.0801 429.994L107.881 429.972C107.881 429.972 111.31 416.677 114.171 403.645C118.559 383.654 150.246 271.762 150.246 271.762L154.954 270.953L156.582 342.86C156.582 342.86 156.232 344.775 157.108 345.994C157.982 347.212 156.234 347.736 156.496 349.476L157.108 352.259C157.108 352.259 156.407 363.395 155.706 370.705C155.007 378.012 155.563 431.465 155.563 431.465Z" fill="#7BB2F9"/>
<path d="M166.021 348.664C166.021 348.664 170.351 346.942 175.547 342.64M118.764 343.209C120.563 343.355 125.067 340.077 129.62 335.553L118.764 343.209Z" stroke="#648BD8" stroke-width="1.051" stroke-linecap="round" stroke-linejoin="round"/>
<path d="M167.449 343.945C167.449 343.945 171.778 342.223 176.974 337.919" stroke="#648BD8" stroke-linecap="round" stroke-linejoin="round"/>
<path d="M87.5996 425.11H108.376M116.664 348.082C116.664 348.082 120.757 347.165 126.818 342.862L116.664 348.082ZM134.287 234.624C133.866 239.443 134.755 247.85 127.519 248.778L134.287 234.624ZM161.752 231.903C161.752 231.903 161.924 253.641 159.734 255.275C156.27 257.857 155.066 258.291 155.066 258.291L161.752 231.903ZM155.766 232.769C155.766 232.769 155.82 252.751 153.899 270.587L155.766 232.769ZM146.217 272.288C146.217 272.288 157.475 269.706 160.939 269.706L146.217 272.288ZM115.993 318.752C115.51 321.115 115 323.473 114.465 325.826C114.465 325.826 112.189 328.668 112.89 331.684C113.591 334.7 111.412 334.857 105.109 355.506C102.461 364.178 98.1 384.347 95.1998 398.319L94.8392 400.057L115.993 318.752ZM118.146 306.257C117.705 308.719 117.246 311.177 116.769 313.632L118.146 306.257ZM128.919 235.554L127.052 251.792C127.052 251.792 125.34 252.025 126.272 255.273C126.448 257.362 122.098 279.747 118.186 302.482L128.919 235.554Z" stroke="#648BD8" stroke-width="1.051" stroke-linecap="round" stroke-linejoin="round"/>
<path fill-rule="evenodd" clip-rule="evenodd" d="M181.445 229.328C181.445 229.328 154.836 224.513 125.418 229.638C125.665 233.539 125.414 236.077 125.414 236.077C125.414 236.077 148.339 231.705 181.092 235.593C181.486 231.939 181.445 229.328 181.445 229.328Z" fill="#192064"/>
<path fill-rule="evenodd" clip-rule="evenodd" d="M165.962 233.897L165.967 226.278C165.969 225.952 165.844 225.637 165.617 225.401C165.39 225.166 165.08 225.026 164.752 225.014C160.944 224.872 156.845 224.846 152.521 224.992C152.191 225.003 151.878 225.142 151.649 225.377C151.419 225.613 151.29 225.928 151.289 226.256L151.285 233.867C151.284 234.036 151.317 234.202 151.383 234.357C151.448 234.512 151.544 234.653 151.665 234.771C151.786 234.888 151.929 234.981 152.087 235.042C152.244 235.104 152.413 235.133 152.582 235.129C156.305 235.036 160.344 235.029 164.648 235.155C164.818 235.161 164.987 235.132 165.146 235.072C165.305 235.011 165.449 234.92 165.572 234.802C165.695 234.685 165.792 234.545 165.859 234.39C165.926 234.234 165.961 234.067 165.962 233.898" fill="white"/>
<path fill-rule="evenodd" clip-rule="evenodd" d="M164.221 232.451L164.224 227.679C164.226 227.42 164.126 227.17 163.946 226.983C163.765 226.796 163.519 226.686 163.258 226.677C160.207 226.577 157.153 226.572 154.102 226.661C153.839 226.669 153.589 226.778 153.406 226.966C153.222 227.153 153.119 227.404 153.118 227.665V232.431C153.117 232.563 153.143 232.695 153.194 232.818C153.246 232.94 153.321 233.051 153.416 233.145C153.511 233.238 153.624 233.311 153.749 233.36C153.873 233.409 154.005 233.433 154.139 233.43C157.153 233.364 160.169 233.37 163.183 233.447C163.748 233.462 164.221 233.012 164.221 232.451Z" fill="#192064"/>
<path d="M157.633 270.82L159.035 340.077C159.035 340.077 160.085 342.513 158.683 344.253C157.283 345.994 162.536 345.297 160.085 347.733C157.635 350.169 161.485 349.474 160.085 352.953C159.155 355.264 158.534 385.688 158.374 407.479M156.504 426.657H175.763H156.504ZM158.335 419.078C158.345 424.333 158.401 428.061 158.509 429.172L158.335 419.078ZM158.359 409.798C158.346 412.041 158.338 414.284 158.335 416.526L158.359 409.798Z" stroke="#648BD8" stroke-width="1.051" stroke-linecap="round" stroke-linejoin="round"/>
<path fill-rule="evenodd" clip-rule="evenodd" d="M73.1703 128.809C73.1703 128.809 72.3649 138.187 84.445 137.422C101.927 136.318 98.8337 122.924 133.677 103.827C132.45 99.6257 129.857 96.467 129.857 96.467C129.857 96.467 112.581 101.292 94.6051 108.95C84.0438 113.449 73.6964 118.804 73.1703 128.809ZM163.055 140.646L164.524 132.312L150.657 114.58L142.794 122.914L140.078 135.067C140.057 135.157 140.062 135.252 140.092 135.339C140.121 135.427 140.175 135.505 140.247 135.564C141.753 136.805 150.393 143.341 162.642 141.062C162.745 141.042 162.839 140.992 162.913 140.917C162.986 140.843 163.035 140.749 163.054 140.646" fill="#FFC6A0"/>
<path fill-rule="evenodd" clip-rule="evenodd" d="M146.638 122.541C146.638 122.541 139.562 118.115 142.842 111.906C145.375 107.113 149.886 113.664 149.886 113.664C149.886 113.664 150.698 108.014 154.758 108.014C155.569 106.401 157.194 101.557 157.194 101.557C157.194 101.557 175.059 105.592 178.308 106.399C178.308 114.471 174.711 136.533 166.07 137.211C152.19 138.302 146.638 122.541 146.638 122.541Z" fill="#FFC6A0"/>
<path fill-rule="evenodd" clip-rule="evenodd" d="M177.75 113.324C181.81 110.096 183.167 98.2417 183.167 98.2417C183.167 98.2417 179.297 97.4815 172.802 95.0613C165.492 91.8329 152.825 87.6969 145.517 96.5755C130.426 101.576 142.317 127.329 142.317 127.329L146.552 122.642C146.552 122.642 140.409 117.543 143.305 112.957C146.692 107.586 149.424 114.621 149.424 114.621C149.424 114.621 150.418 110.918 155.014 109.437C155.568 108.335 156.631 105.288 157.249 103.464C157.381 103.07 157.657 102.74 158.022 102.538C158.386 102.336 158.814 102.277 159.22 102.371C162.967 103.237 172.765 105.504 176.946 106.501C177.761 106.695 178.306 107.455 178.226 108.285L177.75 113.324Z" fill="#520038"/>
<path fill-rule="evenodd" clip-rule="evenodd" d="M163.863 117.386C163.702 118.332 162.954 118.996 162.192 118.869C161.429 118.74 160.942 117.87 161.103 116.924C161.264 115.977 162.011 115.313 162.773 115.441C163.535 115.568 164.022 116.44 163.863 117.386ZM175.031 119.915C174.87 120.861 174.123 121.525 173.361 121.398C172.599 121.269 172.112 120.399 172.271 119.453C172.432 118.506 173.18 117.842 173.942 117.969C174.703 118.097 175.19 118.967 175.031 119.915Z" fill="#552950"/>
<path d="M171.906 115.487L170.507 117.985L170.042 124.744H166.564" stroke="#DB836E" stroke-width="1.118" stroke-linecap="round" stroke-linejoin="round"/>
<path d="M173.024 114.93C173.024 114.93 175.818 113.819 176.936 115.763" stroke="#5C2552" stroke-width="1.118" stroke-linecap="round" stroke-linejoin="round"/>
<path d="M144.209 114.621C144.209 114.621 144.954 112.893 145.946 113.51C146.941 114.128 147.935 115.734 146.817 116.598C145.698 117.46 147.065 119.189 147.065 119.189" stroke="#DB836E" stroke-width="1.118" stroke-linecap="round" stroke-linejoin="round"/>
<path d="M161.225 112.524C161.225 112.524 164.081 114.251 167.682 114.004" stroke="#5C2552" stroke-width="1.118" stroke-linecap="round" stroke-linejoin="round"/>
<path d="M147.81 125.362C147.81 125.362 151.412 136.842 164.081 137.213M161.846 126.226C161.846 126.226 165.322 128.077 168.676 128.077L161.846 126.226ZM163.336 130.176C163.336 130.176 164.825 130.793 165.695 130.669L163.336 130.176Z" stroke="#DB836E" stroke-width="1.118" stroke-linecap="round" stroke-linejoin="round"/>
<path d="M107.704 127.609C107.704 127.609 106.571 142.009 94.8984 149.648M127.138 138.05C127.138 138.05 127.84 146.811 119.435 157.888L127.138 138.05Z" stroke="#E4EBF7" stroke-width="1.101" stroke-linecap="round" stroke-linejoin="round"/>
<path d="M201.993 189.993C201.993 189.993 193.764 201.478 187.286 206.698" stroke="#E4EBF7" stroke-width="1.051" stroke-linecap="round" stroke-linejoin="round"/>
<path d="M186.229 165.89C186.229 165.89 186.934 172.664 182.909 215.631" stroke="#E4EBF7" stroke-width="1.101" stroke-linecap="round" stroke-linejoin="round"/>
<path fill-rule="evenodd" clip-rule="evenodd" d="M234.184 233.322H156.391C155.973 233.322 155.572 233.157 155.277 232.863C154.981 232.569 154.815 232.17 154.815 231.755V182.594C154.815 181.73 155.52 181.028 156.391 181.028H234.184C235.055 181.028 235.76 181.73 235.76 182.594V231.755C235.76 232.17 235.594 232.569 235.299 232.863C235.003 233.157 234.602 233.322 234.184 233.322Z" fill="#F2D7AD"/>
<path fill-rule="evenodd" clip-rule="evenodd" d="M234.593 234.001H203.588V181.708H236.03V232.572C236.03 232.95 235.879 233.313 235.61 233.581C235.34 233.849 234.975 233.999 234.594 233.999" fill="#F4D19D"/>
<path fill-rule="evenodd" clip-rule="evenodd" d="M192.86 197.797H145.038C144.889 197.798 144.744 197.758 144.617 197.681C144.49 197.605 144.387 197.496 144.318 197.365C144.25 197.234 144.219 197.088 144.229 196.941C144.239 196.794 144.289 196.652 144.374 196.532L154.333 182.394C154.634 181.964 155.129 181.708 155.66 181.708H204.192L192.86 197.797Z" fill="#F2D7AD"/>
<path fill-rule="evenodd" clip-rule="evenodd" d="M193.071 198.652H154.923V197.847H192.65L203.862 181.93L204.524 182.392L193.071 198.652Z" fill="#CC9B6E"/>
<path fill-rule="evenodd" clip-rule="evenodd" d="M247.093 197.797H217.952C217.449 197.797 216.954 197.681 216.504 197.458C216.055 197.234 215.664 196.91 215.362 196.51L204.192 181.708H235.356C236.121 181.708 236.839 182.065 237.298 182.673L247.741 196.511C247.831 196.631 247.886 196.773 247.899 196.922C247.913 197.071 247.884 197.22 247.817 197.354C247.75 197.488 247.646 197.6 247.519 197.679C247.391 197.757 247.243 197.799 247.093 197.799" fill="#F4D19D"/>
<path fill-rule="evenodd" clip-rule="evenodd" d="M246.389 198.702H216.132L203.868 182.451L204.516 181.97L216.535 197.897H246.389V198.702ZM203.787 233.152L203.737 220.467L204.547 220.464L204.597 233.149L203.787 233.152Z" fill="#CC9B6E"/>
<path fill-rule="evenodd" clip-rule="evenodd" d="M203.719 216.239L203.595 183.018L204.405 183.014L204.53 216.236L203.719 216.239ZM174.631 218.022L173.854 217.8L176.163 209.784L176.94 210.005L174.631 218.022ZM169.263 218.22L165.082 213.667L169.241 208.339L169.881 208.833L166.14 213.625L169.861 217.677L169.263 218.22ZM182.016 218.22L181.418 217.677L185.138 213.625L181.396 208.833L182.036 208.339L186.196 213.667L182.016 218.22Z" fill="#CC9B6E"/>
<path fill-rule="evenodd" clip-rule="evenodd" d="M240.877 203.997L236.017 200.956L236.076 206.408L234.448 206.551C231.822 206.729 228.775 206.907 226.972 206.907C224.004 206.907 222.769 210.41 230.453 211.016L226.325 210.091C226.325 210.091 222.941 212.134 227.111 213.659C227.111 213.659 224.645 215.547 227.987 217.662C227.075 223.098 236.177 223.957 239.104 223.231C242.032 222.502 245.712 219.571 246.108 215.226C246.545 210.44 244.719 206.799 240.879 203.997" fill="#FFC6A0"/>
<path d="M239.894 206.611C239.894 206.611 229.714 207.34 226.845 207.188C223.979 207.036 223.873 210.586 230.527 210.701C236.363 210.933 239.036 210.632 239.036 210.632" stroke="#DB836E" stroke-width="1.051" stroke-linecap="round" stroke-linejoin="round"/>
<path d="M226.586 210.179C223.698 212.267 227.461 213.833 227.461 213.833C227.461 213.833 232.89 215.226 237.966 214.79" stroke="#DB836E" stroke-width="1.051" stroke-linecap="round" stroke-linejoin="round"/>
<path d="M82.4771 137.898C87.9918 137.376 95.6248 135.962 103.678 125.869M237.091 219.228C237.091 219.228 227.288 219.401 226.586 215.921C226.238 213.833 227.288 213.746 227.288 213.746L237.091 219.228ZM228.075 217.922C228.075 217.922 226.353 222.825 236.566 223.403L228.075 217.922ZM236.017 200.956V206.35V200.956Z" stroke="#DB836E" stroke-width="1.051" stroke-linecap="round" stroke-linejoin="round"/>
<path fill-rule="evenodd" clip-rule="evenodd" d="M263.123 384.619C260.371 384.619 257.732 383.533 255.786 381.599C253.84 379.665 252.747 377.042 252.747 374.307V271.192C252.747 269.838 253.015 268.497 253.537 267.246C254.058 265.995 254.823 264.858 255.786 263.901C256.749 262.943 257.893 262.184 259.152 261.665C260.411 261.147 261.76 260.88 263.123 260.88C264.485 260.88 265.834 261.147 267.093 261.665C268.352 262.184 269.496 262.943 270.459 263.901C271.423 264.858 272.187 265.995 272.708 267.246C273.23 268.497 273.498 269.838 273.498 271.192V374.307C273.498 377.042 272.405 379.665 270.459 381.599C268.513 383.533 265.874 384.619 263.123 384.619Z" fill="#5BA02E"/>
<path fill-rule="evenodd" clip-rule="evenodd" d="M275.572 383.587C272.821 383.587 270.182 382.5 268.236 380.566C266.291 378.632 265.198 376.01 265.198 373.275V321.719C265.181 320.355 265.437 319 265.951 317.734C266.465 316.469 267.226 315.317 268.191 314.346C269.156 313.375 270.306 312.604 271.573 312.078C272.84 311.552 274.2 311.281 275.573 311.281C276.946 311.281 278.306 311.552 279.573 312.078C280.84 312.604 281.989 313.375 282.954 314.346C283.919 315.317 284.681 316.469 285.195 317.734C285.709 319 285.964 320.355 285.948 321.719V373.275C285.948 376.01 284.854 378.633 282.909 380.567C280.963 382.501 278.324 383.587 275.572 383.587Z" fill="#92C110"/>
<path fill-rule="evenodd" clip-rule="evenodd" d="M291.026 454.889H248.064C246.745 454.889 245.479 454.368 244.546 453.441C243.613 452.514 243.089 451.256 243.089 449.945V378.373C243.089 377.062 243.613 375.804 244.546 374.877C245.479 373.95 246.745 373.429 248.064 373.429H291.027C292.347 373.429 293.612 373.95 294.545 374.877C295.478 375.804 296.002 377.062 296.002 378.373V449.945C296.002 451.256 295.478 452.514 294.545 453.441C293.612 454.368 292.347 454.889 291.027 454.889" fill="#F2D7AD"/>
<path d="M138.891 138.199C138.891 138.199 151.028 146.552 164.802 142.608" stroke="#E4EBF7" stroke-width="1.101" stroke-linecap="round" stroke-linejoin="round"/>
</svg>
