<svg width="389" height="451" viewBox="0 0 389 451" fill="none" xmlns="http://www.w3.org/2000/svg">
<path fill-rule="evenodd" clip-rule="evenodd" d="M0 196.119V192.881C0 86.3568 86.3552 0 192.881 0H196.119C302.643 0 389 86.3568 389 192.881V196.119C389 302.645 302.643 389 196.119 389H192.881C86.3552 389 0 302.645 0 196.119Z" fill="#E4EBF7"/>
<path fill-rule="evenodd" clip-rule="evenodd" d="M61.3667 202.114C61.1983 203.785 60.7025 205.406 59.9076 206.885C59.1127 208.365 58.0342 209.673 56.7338 210.735C55.4333 211.797 53.9364 212.593 52.3284 213.077C50.7204 213.561 49.0329 213.723 47.3621 213.555C45.6914 213.386 44.0702 212.891 42.5911 212.096C41.112 211.301 39.8039 210.222 38.7416 208.922C37.6792 207.621 36.8835 206.124 36.3996 204.516C35.9158 202.908 35.7535 201.221 35.9219 199.55C36.2649 196.179 37.9325 193.081 40.5581 190.938C43.1837 188.796 46.5525 187.783 49.9244 188.123C53.2963 188.463 56.3953 190.127 58.5406 192.751C60.6858 195.374 61.7017 198.742 61.3651 202.114" fill="white"/>
<path d="M74.6805 226.324L55.1392 242.991M57.0712 207.458L73.2656 216.639L57.0712 207.458Z" stroke="white" stroke-width="2"/>
<path fill-rule="evenodd" clip-rule="evenodd" d="M61.5517 246.169C61.4455 247.32 61.1123 248.439 60.5714 249.461C60.0306 250.483 59.2927 251.387 58.4004 252.123C57.5081 252.858 56.479 253.409 55.3725 253.744C54.2661 254.08 53.1042 254.193 51.9539 254.077C50.8036 253.961 49.6876 253.618 48.6704 253.068C47.6532 252.519 46.7549 251.773 46.0274 250.875C45.2998 249.976 44.7574 248.943 44.4314 247.833C44.1054 246.724 44.0024 245.561 44.1281 244.412C44.3794 242.116 45.5274 240.013 47.3222 238.559C49.117 237.106 51.4133 236.421 53.711 236.652C56.0088 236.884 58.122 238.014 59.5905 239.797C61.059 241.579 61.7639 243.869 61.5517 246.169ZM88.9178 221.284C88.8068 222.441 88.4684 223.564 87.9221 224.589C87.3758 225.614 86.6324 226.521 85.7345 227.258C84.8367 227.995 83.8021 228.547 82.6901 228.883C81.5782 229.219 80.4108 229.332 79.2551 229.216C78.0993 229.099 76.978 228.756 75.9554 228.205C74.9328 227.654 74.0292 226.906 73.2964 226.005C72.5635 225.104 72.016 224.067 71.6851 222.953C71.3543 221.84 71.2466 220.672 71.3684 219.517C71.6074 217.193 72.7585 215.059 74.5691 213.583C76.3797 212.107 78.7019 211.41 81.026 211.644C83.3502 211.878 85.4864 213.025 86.966 214.833C88.4455 216.641 89.1475 218.961 88.9178 221.286V221.284ZM152.93 41.4842L199.004 41.4643C199.935 41.4639 200.856 41.2801 201.716 40.9235C202.576 40.5669 203.357 40.0445 204.015 39.386C204.673 38.7275 205.195 37.9459 205.55 37.0858C205.906 36.2256 206.089 35.3038 206.089 34.373C206.088 33.4421 205.905 32.5205 205.548 31.6607C205.192 30.8008 204.669 30.0197 204.011 29.3618C203.352 28.7038 202.571 28.1821 201.71 27.8262C200.85 27.4704 199.928 27.2874 198.998 27.2878L152.923 27.3078C151.069 27.3472 149.304 28.1117 148.007 29.4373C146.71 30.763 145.983 32.5442 145.984 34.399C145.985 36.2538 146.713 38.0344 148.011 39.3589C149.309 40.6835 151.075 41.4464 152.93 41.4842ZM170.553 69.8156L216.625 69.7956C217.569 69.8148 218.506 69.6456 219.383 69.2978C220.26 68.95 221.059 68.4307 221.733 67.7703C222.406 67.1098 222.942 66.3216 223.307 65.4517C223.672 64.5818 223.86 63.6477 223.859 62.7043C223.859 61.7608 223.67 60.8269 223.304 59.9573C222.938 59.0878 222.403 58.3 221.728 57.6401C221.054 56.9803 220.255 56.4616 219.377 56.1146C218.5 55.7676 217.562 55.5992 216.619 55.6192L170.545 55.6391C168.665 55.64 166.863 56.3875 165.534 57.7174C164.205 59.0473 163.459 60.8505 163.46 62.7304C163.461 64.6103 164.208 66.4129 165.538 67.7416C166.868 69.0704 168.671 69.8164 170.551 69.8156" fill="white"/>
<path fill-rule="evenodd" clip-rule="evenodd" d="M174.22 41.4642V41.4612L198.605 41.4504C196.725 41.4515 194.922 42.1992 193.594 43.5292C192.265 44.8593 191.519 46.6626 191.52 48.5425C191.521 50.4224 192.269 52.2249 193.599 53.5535C194.929 54.8821 196.732 55.6279 198.612 55.6269L174.225 55.6376V55.6345C176.078 55.5952 177.843 54.831 179.139 53.5059C180.436 52.1808 181.162 50.4004 181.161 48.5464C181.16 46.6924 180.433 44.9126 179.135 43.5886C177.837 42.2647 176.072 41.502 174.219 41.4642H174.22ZM230.443 106.945H224.336C222.395 106.939 220.535 106.165 219.162 104.792C217.79 103.419 217.016 101.558 217.01 99.617C217.016 97.6758 217.79 95.8156 219.162 94.443C220.535 93.0703 222.395 92.2966 224.336 92.291H230.443C232.384 92.2966 234.244 93.0702 235.617 94.4429C236.99 95.8155 237.764 97.6756 237.77 99.617C237.764 101.559 236.991 103.419 235.618 104.792C234.245 106.165 232.384 106.939 230.443 106.945Z" fill="white"/>
<path fill-rule="evenodd" clip-rule="evenodd" d="M263.467 45.7811C263.467 20.6263 283.86 0.234863 309.015 0.234863C334.169 0.234863 354.561 20.6263 354.561 45.7811C354.561 70.9374 334.169 91.3288 309.015 91.3288C283.86 91.3288 263.468 70.9374 263.468 45.7826" fill="#FF603B"/>
<path fill-rule="evenodd" clip-rule="evenodd" d="M312.374 29.2092L311.336 52.2816C311.314 52.8827 311.06 53.452 310.627 53.8696C310.194 54.2871 309.616 54.5205 309.015 54.5205C308.413 54.5205 307.835 54.2871 307.402 53.8696C306.969 53.452 306.715 52.8827 306.693 52.2816L305.657 29.2092C305.64 28.7577 305.715 28.3075 305.876 27.8854C306.037 27.4634 306.282 27.0782 306.595 26.7528C306.909 26.4275 307.285 26.1687 307.701 25.992C308.116 25.8152 308.563 25.7241 309.015 25.7241C309.467 25.7241 309.914 25.8152 310.33 25.992C310.746 26.1687 311.122 26.4275 311.435 26.7528C311.749 27.0782 311.993 27.4634 312.155 27.8854C312.316 28.3075 312.39 28.7577 312.374 29.2092ZM311.969 58.9462C312.756 59.6782 313.15 60.6343 313.15 61.8159C313.15 62.9975 312.756 63.9536 311.969 64.7423C311.125 65.4728 310.112 65.8672 308.987 65.8672C308.453 65.8768 307.923 65.7769 307.43 65.5736C306.936 65.3704 306.489 65.0682 306.117 64.6856C305.273 63.8968 304.88 62.9423 304.88 61.8159C304.88 60.6343 305.273 59.6782 306.117 58.9462C306.904 58.159 307.862 57.8214 308.987 57.8214C310.169 57.8214 311.181 58.159 311.969 58.9462Z" fill="white"/>
<path fill-rule="evenodd" clip-rule="evenodd" d="M183.075 203.905C189.867 202.988 188.618 202.058 189.335 196.573C190.37 188.624 184.565 170.585 176.656 158.028C174.986 141.577 157.323 140.779 157.323 140.779C157.323 140.779 163.94 148.291 163.762 165.638C165.908 173.683 164.996 187.812 164.996 187.812C164.996 187.812 173.06 205.259 183.073 203.905" fill="#FFB594"/>
<path fill-rule="evenodd" clip-rule="evenodd" d="M154.906 139.967C154.906 139.967 157.151 139.073 159.834 140.86C172.233 143.006 175.744 151.151 177.174 158.305C180.035 160.273 180.035 161.881 180.035 163.67C180.595 164.863 182.36 168.32 182.36 168.32C182.36 168.32 171.273 171.003 165.55 178.691C163.403 168.854 154.906 139.966 154.906 139.966" fill="white"/>
<path fill-rule="evenodd" clip-rule="evenodd" d="M144.263 138.264L145.827 129.34L131.662 111.119L123.632 119.683L119.653 134.819C119.653 134.819 132.528 142.688 144.263 138.265" fill="#FFB594"/>
<path fill-rule="evenodd" clip-rule="evenodd" d="M127.264 119.413C127.264 119.413 120.271 115.012 123.512 108.837C126.016 104.069 130.474 110.585 130.474 110.585C130.474 110.585 131.278 104.965 135.291 104.965C136.094 103.36 137.699 98.5444 137.699 98.5444C137.699 98.5444 155.357 102.557 158.569 103.36C158.567 111.386 155.013 133.329 146.47 134.004C132.751 135.087 127.264 119.413 127.264 119.413Z" fill="#FFC6A0"/>
<path fill-rule="evenodd" clip-rule="evenodd" d="M158.017 110.247C162.031 107.035 163.371 95.2464 163.371 95.2464C163.371 95.2464 159.547 94.4914 153.126 92.0821C145.901 88.8718 133.381 84.7607 126.156 93.5891C111.516 100.357 122.992 124.173 122.992 124.173L127.179 119.513C127.179 119.513 121.109 114.442 123.969 109.88C127.319 104.54 130.02 111.537 130.02 111.537C130.02 111.537 131.002 107.854 135.544 106.381C136.091 105.286 137.14 102.253 137.754 100.439C137.886 100.048 138.158 99.7207 138.519 99.52C138.879 99.3194 139.302 99.2604 139.703 99.3545C143.401 100.214 153.089 102.47 157.223 103.461C158.028 103.654 158.568 104.411 158.489 105.235L158.017 110.247Z" fill="#520038"/>
<path fill-rule="evenodd" clip-rule="evenodd" d="M155.33 116.801C155.17 117.742 154.432 118.403 153.678 118.274C152.927 118.149 152.443 117.283 152.601 116.341C152.761 115.4 153.499 114.739 154.252 114.866C155.006 114.994 155.488 115.859 155.33 116.8V116.801ZM144.649 114.591C144.489 115.532 143.751 116.194 142.998 116.065C142.246 115.939 141.763 115.073 141.921 114.131C142.08 113.19 142.818 112.529 143.572 112.658C144.325 112.784 144.807 113.649 144.649 114.591Z" fill="#552950"/>
<path d="M152.239 112.397L150.858 114.883L150.398 121.604H146.96" stroke="#DB836E" stroke-width="1.063" stroke-linecap="round" stroke-linejoin="round"/>
<path d="M153.344 111.845C153.344 111.845 156.106 110.74 157.211 112.673" stroke="#5C2552" stroke-width="1.117" stroke-linecap="round" stroke-linejoin="round"/>
<path d="M124.864 111.538C124.864 111.538 125.601 109.819 126.583 110.433C127.565 111.047 128.547 112.643 127.442 113.502C126.337 114.361 127.688 116.08 127.688 116.08" stroke="#DB836E" stroke-width="1.117" stroke-linecap="round" stroke-linejoin="round"/>
<path d="M141.682 109.451C141.682 109.451 144.505 111.169 148.065 110.924" stroke="#5C2552" stroke-width="1.117" stroke-linecap="round" stroke-linejoin="round"/>
<path d="M128.424 122.218C128.424 122.218 131.165 132.265 142.638 134.424M142.295 123.078C142.295 123.078 145.733 124.919 149.047 124.919L142.295 123.078ZM143.769 127.006C143.769 127.006 145.242 127.62 146.101 127.497L143.769 127.006Z" stroke="#DB836E" stroke-width="1.063" stroke-linecap="round" stroke-linejoin="round"/>
<path d="M146.626 140.048C146.626 140.048 144.987 144.377 133.892 143.279C122.797 142.178 118.101 135.538 118.101 135.538" stroke="#E4EBF7" stroke-width="1.136" stroke-linecap="round" stroke-linejoin="round"/>
<path fill-rule="evenodd" clip-rule="evenodd" d="M119.891 133.626C119.891 133.626 129.905 141.256 145.165 137.441C145.165 137.441 159.862 139.006 162.868 145.608C171.093 163.67 163.701 202.134 162.868 206.933C168.233 213.155 162.153 219.951 162.153 219.951C138.177 214.506 107.2 219.03 107.2 219.03C99.7586 213.588 105.323 205.151 105.323 205.151L95.7273 168.679C91.9139 145.312 97.0056 138.29 101.174 136.847C105.823 135.237 113.512 134.88 113.512 134.88C114.273 134.791 115.169 134.763 115.614 134.522C119.235 132.555 119.891 133.628 119.891 133.628" fill="white"/>
<path fill-rule="evenodd" clip-rule="evenodd" d="M101.018 137.205C101.018 137.205 90.468 137.918 89.3708 149.721C88.6557 163.313 94.0206 166.531 94.0206 166.531C94.0206 166.531 103.343 200.448 119.795 201.76C132.67 198.421 127.097 191.475 126.948 184.235C126.59 166.888 116.04 158.305 116.04 158.305C116.04 158.305 109.577 137.205 101.018 137.205Z" fill="#FFC6A0"/>
<path fill-rule="evenodd" clip-rule="evenodd" d="M110.053 190.017C110.053 190.017 111.365 207.303 125.135 199.971C132.447 196.079 136.769 178.751 140.157 165.338C142.391 156.487 144.116 146.621 144.116 146.621L136.485 143.999C136.485 143.999 132.789 152.463 124.563 162.835C117.91 171.225 110.53 179.885 110.053 190.017Z" fill="#FFC6A0"/>
<path d="M166.444 160.808C166.444 160.808 169.125 164.989 162.867 207.667C166.513 211.067 164.483 216.892 162.51 219.191" stroke="#E4EBF7" stroke-width="1.085" stroke-linecap="round" stroke-linejoin="round"/>
<path fill-rule="evenodd" clip-rule="evenodd" d="M189.155 201.223C189.155 201.223 188.5 205.416 171.093 204.263C147.788 202.719 132.229 199.276 132.229 199.276L133.66 190.375C133.66 190.375 134.77 190.705 148.561 190.271C166.803 189.698 177.279 180.956 186.87 188.702C193.068 193.71 189.155 201.225 189.155 201.225" fill="#FFC6A0"/>
<path fill-rule="evenodd" clip-rule="evenodd" d="M107.789 138.991C107.789 138.991 99.206 131.719 90.8257 143.104C85.7339 154.188 91.619 166.558 94.9138 173.148C94.438 178.87 98.4893 179.763 98.4893 179.763C98.4893 179.763 98.6551 181.137 100.816 183.876C107.074 173.088 111.128 169.81 121.856 164.623C121.353 163.617 118.976 159.613 119.056 158.843C119.324 156.249 117.088 154.817 117.088 154.817C117.088 154.817 116.65 154.578 115.301 150.616C114.091 147.066 112.176 142.671 107.789 138.991Z" fill="white"/>
<path fill-rule="evenodd" clip-rule="evenodd" d="M138.468 441.384C138.468 441.384 145.918 444.926 151.225 443.157C156.117 441.525 159.082 444.315 163.504 445.199C167.925 446.084 175.426 447.107 183.771 443.014C183.592 433.456 171.823 436.11 163.027 431.369C158.584 428.976 156.465 423.181 156.787 416.11H140.481C140.481 416.11 138.067 434.356 138.468 441.384Z" fill="#CBD1D1"/>
<path fill-rule="evenodd" clip-rule="evenodd" d="M138.43 441.086C138.43 441.086 142.642 443.292 150.152 442.219C155.456 441.461 155.098 443.232 161.536 444.186C167.973 445.139 181.626 443.889 183.532 442.458C184.248 444.364 182.937 446.034 182.937 446.034C182.937 446.034 180.314 447.08 174.592 447.464C171.07 447.7 162.165 447.888 159.031 446.511C155.932 444.126 151.521 444.186 149.732 446.152C142.938 447.802 138.707 445.676 138.707 445.676L138.43 441.086Z" fill="#2B0849"/>
<path fill-rule="evenodd" clip-rule="evenodd" d="M151.047 417.184H156.411C156.411 417.184 156.232 428.807 164.279 432.025C156.232 433.099 149.437 428.032 151.047 417.184Z" fill="#A4AABA"/>
<path fill-rule="evenodd" clip-rule="evenodd" d="M68.1737 416.86C68.1737 416.86 64.7854 428.79 60.9582 436.655C58.067 442.6 54.1631 448.707 69.7498 448.707C80.4458 448.707 84.1518 447.935 81.6918 438.093C79.2304 428.248 82.12 416.86 82.12 416.86H68.1737Z" fill="#CBD1D1"/>
<path fill-rule="evenodd" clip-rule="evenodd" d="M58.4154 444.837C58.4154 444.837 61.7884 446.717 69.0869 446.717C78.8713 446.717 82.3548 444.062 82.3548 444.062C82.3548 444.062 83.3216 445.854 81.3589 447.545C79.7629 448.922 75.5735 450.105 69.4736 450.033C62.8028 449.956 60.0897 449.123 58.6364 448.155C57.3106 447.269 57.5315 445.612 58.4154 444.837Z" fill="#2B0849"/>
<path fill-rule="evenodd" clip-rule="evenodd" d="M69.5839 419.921C69.5839 419.921 69.6376 422.365 69.079 424.633C68.5189 426.919 67.345 429.628 67.2621 431.293C67.1685 433.143 74.559 433.836 75.5534 431.348C76.5509 428.859 77.6358 421.01 78.6318 419.682C79.6262 418.355 70.7441 416.272 69.5839 419.921Z" fill="#A4AABA"/>
<path fill-rule="evenodd" clip-rule="evenodd" d="M137.308 425.337L158.637 425.483C158.637 425.483 160.707 338.56 161.591 322.806C162.475 307.05 167.611 253.67 163.19 222.161L143.184 221.134L106.758 222.377C106.758 222.377 106.064 228.699 104.85 238.283C104.75 239.073 103.764 239.624 103.658 240.457C103.538 241.39 104.331 242.617 104.167 243.594C100.4 266.04 95.2712 293.83 91.4977 315.469C91.312 316.533 89.5303 317.077 89.1728 319.76C89.1083 320.242 89.5104 322.19 89.3508 322.622C78.3939 352.505 70.6259 403.342 65.3193 425.73L88.6081 425.707C88.6081 425.707 92.11 410.139 95.0303 396.748C99.5143 376.201 131.879 261.214 131.879 261.214L136.686 259.75L136.444 334.281C136.444 334.281 136.086 336.249 136.981 337.501C137.876 338.752 136.089 339.292 136.355 341.078L136.981 343.938C136.981 343.938 136.266 355.383 135.551 362.894C134.834 370.405 137.308 425.335 137.308 425.335" fill="#7BB2F9"/>
<path d="M147.356 340.88C147.356 340.88 151.777 339.112 157.085 334.69M99.0874 335.274C100.924 335.426 105.525 332.056 110.175 327.406L99.0874 335.274Z" stroke="#648BD8" stroke-width="1.085" stroke-linecap="round" stroke-linejoin="round"/>
<path d="M148.812 336.029C148.812 336.029 153.235 334.26 158.542 329.839" stroke="#648BD8" stroke-width="1.032" stroke-linecap="round" stroke-linejoin="round"/>
<path d="M67.8931 419.439H89.1132M96.9426 340.281C96.9426 340.281 101.123 339.339 107.315 334.917L96.9426 340.281ZM114.945 223.687C114.513 228.638 115.42 237.278 108.03 238.232L114.945 223.687ZM142.995 220.891C142.995 220.891 143.172 243.23 140.933 244.907C137.396 247.562 136.165 248.007 136.165 248.007L142.995 220.891ZM136.88 221.78C136.88 221.78 137.293 241.95 135.33 260.279L136.88 221.78ZM128.176 261.352C128.176 261.352 138.626 259.739 142.165 259.739L128.176 261.352ZM70.6308 413.789L69.2619 420.753L70.6308 413.789ZM72.0287 403.422L70.7781 409.801L72.0287 403.422ZM96.2566 310.141C95.7502 312.624 96.1001 313.063 95.5676 315.417C95.5676 315.417 91.3383 318.337 92.0534 321.437C92.7685 324.537 91.5777 326.691 85.1402 347.911C82.4362 356.823 78.6443 376.949 75.6795 391.306C75.6335 391.527 74.88 395.367 73.9301 400.207L96.2566 310.141ZM98.4557 297.301C98.003 299.845 97.5349 302.38 97.0485 304.879L98.4557 297.301ZM109.462 224.64L107.553 241.332C107.553 241.332 105.803 241.57 106.756 244.907C106.936 247.054 102.493 270.059 98.4971 293.423L109.462 224.64Z" stroke="#648BD8" stroke-width="1.085" stroke-linecap="round" stroke-linejoin="round"/>
<path fill-rule="evenodd" clip-rule="evenodd" d="M162.941 217.474C158.294 216.724 134.053 213.263 107.36 217.781C107.13 217.821 106.923 217.943 106.776 218.125C106.63 218.307 106.555 218.536 106.565 218.769C106.662 220.775 106.633 222.365 106.588 223.365C106.582 223.506 106.608 223.646 106.662 223.776C106.717 223.906 106.8 224.021 106.906 224.115C107.011 224.208 107.136 224.277 107.271 224.316C107.406 224.356 107.548 224.364 107.687 224.341C112.756 223.522 133.832 220.64 162.416 223.933C162.949 223.995 163.429 223.605 163.478 223.074C163.669 221.007 163.724 219.352 163.739 218.426C163.743 218.197 163.665 217.975 163.518 217.8C163.372 217.626 163.167 217.51 162.941 217.474Z" fill="#192064"/>
<path fill-rule="evenodd" clip-rule="evenodd" d="M147.93 222.303L147.934 214.474C147.936 214.139 147.808 213.816 147.576 213.573C147.345 213.331 147.028 213.188 146.693 213.174C142.53 213.018 138.363 213.011 134.2 213.153C133.863 213.165 133.543 213.307 133.309 213.549C133.074 213.791 132.943 214.115 132.942 214.453L132.937 222.274C132.937 223.005 133.532 223.589 134.263 223.571C138.066 223.473 142.191 223.468 146.586 223.597C146.759 223.603 146.933 223.574 147.095 223.511C147.257 223.449 147.406 223.355 147.531 223.234C147.656 223.114 147.756 222.969 147.825 222.809C147.893 222.649 147.929 222.477 147.93 222.303Z" fill="white"/>
<path fill-rule="evenodd" clip-rule="evenodd" d="M146.152 220.818L146.155 215.915C146.157 215.648 146.055 215.391 145.871 215.199C145.686 215.006 145.434 214.893 145.168 214.884C142.252 214.79 139.12 214.772 135.816 214.868C135.548 214.877 135.293 214.989 135.106 215.181C134.919 215.373 134.814 215.631 134.813 215.899L134.81 220.798C134.81 221.375 135.278 221.837 135.853 221.824C138.706 221.76 141.798 221.758 145.091 221.843C145.668 221.858 146.15 221.396 146.152 220.818Z" fill="#192064"/>
<path d="M138.787 260.883L140.217 332.056C140.217 332.056 141.292 334.559 139.86 336.347C138.43 338.136 143.795 337.421 141.29 339.922C138.789 342.428 142.722 341.712 141.29 345.289C140.342 347.661 139.708 378.928 139.544 401.321M138.269 419.125H157.94H138.269ZM139.978 413.353C139.987 418.754 139.868 421.87 139.978 423.009V413.353ZM139.528 403.706C139.515 406.159 139.504 407.631 139.504 410.619L139.528 403.706Z" stroke="#648BD8" stroke-width="1.085" stroke-linecap="round" stroke-linejoin="round"/>
<path d="M119.08 137.561C119.08 137.561 130.882 146.979 144.472 141.735M113.153 150.794L116.551 157.411C116.551 157.411 119.77 158.663 119.413 161.523L120.665 164.921L113.153 150.794ZM98.6685 178.333C99.026 176.903 102.008 167.366 117.981 162.239L98.6685 178.333Z" stroke="#E4EBF7" stroke-width="1.085" stroke-linecap="round" stroke-linejoin="round"/>
<path fill-rule="evenodd" clip-rule="evenodd" d="M141.141 132.822C141.141 132.822 149.544 131.57 152.764 125.847C154.754 125.318 153.869 129.242 152.257 131.481C151.183 132.971 150.708 133.866 150.708 133.866C150.708 133.866 151.005 134.341 150.945 135.118C150.864 136.187 150.677 136.12 150.528 136.726C150.404 137.24 150.694 137.734 150.528 138.336C150.457 138.597 150.224 139.103 149.942 139.683C149.758 140.065 149.831 140.737 149.635 141.138C149.28 141.858 147.238 144.008 145.611 145.519C139.74 150.973 137.911 148.042 136.402 144.893C135.03 142.031 135.388 137.025 135.061 134.343C134.524 129.871 131.037 129.693 132.11 127.546C132.636 126.495 136.514 128.605 137.117 130.229C138.279 133.359 141.647 133.002 141.141 132.822Z" fill="#FFC6A0"/>
<path d="M153.15 125.878C152.437 125.997 152.613 126.296 151.662 127.786C150.707 129.276 144.27 132.285 141.856 132.733C137.883 133.47 138.36 130.339 135.328 128.352C132.734 126.653 129.862 127.373 133.183 130.497C134.702 131.928 134.613 132.196 135.328 135.416C135.842 137.727 134.346 141.048 136.402 143.999" stroke="#DB836E" stroke-width="0.774" stroke-linecap="round" stroke-linejoin="round"/>
<path d="M122.065 166.152C118.842 170.642 115.518 175.628 113.537 179.598" stroke="#E59788" stroke-width="0.774" stroke-linecap="round" stroke-linejoin="round"/>
<path fill-rule="evenodd" clip-rule="evenodd" d="M134.614 190.851C134.614 190.851 131.394 187.87 126.746 186.678C122.096 185.486 121.261 186.44 118.281 186.798C115.301 187.155 112.319 185.367 112.677 187.872C113.034 190.373 120.426 189.422 120.666 191.09C120.904 192.758 110.891 195.381 107.909 194.428C106.716 195.62 108.624 197.288 111.009 197.765C111.366 200.15 114.466 200.15 114.466 200.15C114.466 200.15 115.539 201.7 118.519 201.82C122.334 203.845 132.229 200.745 135.329 199.435C138.428 198.123 134.614 190.851 134.614 190.851Z" fill="#FFC6A0"/>
<path d="M121.023 165.278C121.023 165.278 108.148 169.511 100.815 183.877M112.676 187.87C112.676 187.87 113.689 189.6 117.536 190.046C121.089 190.461 121.469 190.941 121.469 190.941C121.469 190.941 117.564 195.382 107.551 194.428L112.676 187.87ZM111.128 197.765C111.128 197.765 116.999 197.914 118.698 196.663L111.128 197.765ZM115.062 200.03C115.062 200.03 118.072 200.239 120.219 199.255L115.062 200.03ZM118.518 201.82C118.518 201.82 121.201 201.849 122.99 201.045L118.518 201.82ZM112.527 187.095C112.527 187.095 111.614 185.512 114.464 186.44C117.028 187.275 118.811 186.525 122.333 186.678C124.465 186.772 127.04 186.222 128.444 186.908C130.908 188.111 134.018 190.255 134.018 190.255C134.018 190.255 150.17 192.103 163.225 188.526L112.527 187.095Z" stroke="#E59788" stroke-width="0.774" stroke-linecap="round" stroke-linejoin="round"/>
<path d="M167.695 172.075C167.695 172.075 172.882 166.531 179.32 164.921" stroke="#E4EBF7" stroke-width="1.085" stroke-linecap="round" stroke-linejoin="round"/>
<path d="M164.775 188.147C164.775 188.147 179.656 183.934 182.338 186.796" stroke="#E59788" stroke-width="0.774" stroke-linecap="round" stroke-linejoin="round"/>
<path d="M204.06 260.323L197.991 254.253M298.636 127.761L304.73 121.798L298.636 127.761ZM287.221 138.928L292.954 133.319L287.221 138.928ZM294.258 128.607L287.411 121.609L294.258 128.607ZM304.541 139.119L298.199 132.635L304.541 139.119ZM198.353 249.634L204.059 243.929L198.353 249.634ZM187.665 260.323L193.033 254.955L187.665 260.323ZM194.218 250.481L187.665 243.929L194.218 250.481Z" stroke="#BFCDDD" stroke-width="2" stroke-linecap="round" stroke-linejoin="round"/>
<path fill-rule="evenodd" clip-rule="evenodd" d="M291.809 324.376H289.348C287.717 324.371 286.154 323.721 285.001 322.568C283.847 321.414 283.197 319.852 283.192 318.221V268.979C283.198 267.349 283.848 265.787 285.001 264.634C286.153 263.481 287.716 262.831 289.346 262.825H291.809C293.44 262.83 295.002 263.48 296.155 264.633C297.309 265.786 297.959 267.348 297.964 268.979V318.221C297.959 319.851 297.309 321.413 296.156 322.566C295.003 323.719 293.441 324.369 291.811 324.374" fill="#A3B4C6"/>
<path fill-rule="evenodd" clip-rule="evenodd" d="M364.959 326.214C364.959 328.173 364.181 330.052 362.796 331.437C361.411 332.822 359.532 333.6 357.573 333.6H224.624C222.665 333.6 220.786 332.822 219.401 331.437C218.016 330.052 217.238 328.173 217.238 326.214C217.238 324.255 218.016 322.377 219.401 320.991C220.786 319.606 222.665 318.828 224.624 318.828H357.573C359.532 318.828 361.411 319.606 362.796 320.991C364.181 322.377 364.959 324.255 364.959 326.214Z" fill="#A3B4C6"/>
<path fill-rule="evenodd" clip-rule="evenodd" d="M236.476 291.101H344.683V161.25H236.476V291.101Z" fill="#A3B4C6"/>
<path fill-rule="evenodd" clip-rule="evenodd" d="M345.169 291.101H235.987C234.682 291.097 233.433 290.577 232.51 289.654C231.588 288.731 231.068 287.481 231.064 286.177V257.071C231.068 255.766 231.587 254.515 232.51 253.592C233.432 252.67 234.682 252.149 235.987 252.145H345.169C346.474 252.149 347.724 252.669 348.647 253.592C349.57 254.515 350.09 255.765 350.093 257.071V286.177C350.089 287.482 349.569 288.732 348.646 289.655C347.723 290.578 346.472 291.098 345.167 291.101H345.169ZM345.169 200.156H235.987C234.682 200.152 233.433 199.632 232.51 198.71C231.588 197.787 231.068 196.538 231.064 195.233V166.125C231.068 164.821 231.588 163.571 232.51 162.648C233.433 161.726 234.682 161.205 235.987 161.201H345.169C346.474 161.205 347.724 161.725 348.647 162.648C349.57 163.571 350.09 164.822 350.093 166.127V195.233C350.089 196.538 349.569 197.788 348.646 198.711C347.723 199.633 346.472 200.153 345.167 200.156" fill="#BFCDDD"/>
<path fill-rule="evenodd" clip-rule="evenodd" d="M244.862 184.372C244.37 184.382 243.882 184.294 243.425 184.113C242.968 183.932 242.552 183.661 242.201 183.317C241.85 182.973 241.572 182.563 241.381 182.11C241.191 181.657 241.093 181.17 241.093 180.679C241.093 180.187 241.191 179.701 241.381 179.248C241.572 178.795 241.85 178.384 242.201 178.04C242.552 177.697 242.968 177.426 243.425 177.245C243.882 177.064 244.37 176.976 244.862 176.986C245.828 177.006 246.748 177.403 247.425 178.094C248.101 178.784 248.48 179.712 248.48 180.679C248.48 181.645 248.101 182.574 247.425 183.264C246.748 183.954 245.828 184.352 244.862 184.372ZM256.244 184.372C255.752 184.382 255.264 184.294 254.807 184.113C254.35 183.932 253.934 183.661 253.583 183.317C253.232 182.973 252.953 182.563 252.763 182.11C252.573 181.657 252.475 181.17 252.475 180.679C252.475 180.187 252.573 179.701 252.763 179.248C252.953 178.795 253.232 178.384 253.583 178.04C253.934 177.697 254.35 177.426 254.807 177.245C255.264 177.064 255.752 176.976 256.244 176.986C257.21 177.006 258.13 177.403 258.807 178.094C259.483 178.784 259.862 179.712 259.862 180.679C259.862 181.645 259.483 182.574 258.807 183.264C258.13 183.954 257.21 184.352 256.244 184.372ZM267.626 184.372C267.134 184.382 266.646 184.294 266.189 184.113C265.732 183.932 265.316 183.661 264.965 183.317C264.614 182.973 264.335 182.563 264.145 182.11C263.955 181.657 263.857 181.17 263.857 180.679C263.857 180.187 263.955 179.701 264.145 179.248C264.335 178.795 264.614 178.384 264.965 178.04C265.316 177.697 265.732 177.426 266.189 177.245C266.646 177.064 267.134 176.976 267.626 176.986C268.592 177.006 269.512 177.403 270.189 178.094C270.865 178.784 271.244 179.712 271.244 180.679C271.244 181.645 270.865 182.574 270.189 183.264C269.512 183.954 268.592 184.352 267.626 184.372ZM341.503 184.372H307.035C306.709 184.372 306.396 184.242 306.165 184.011C305.934 183.781 305.804 183.467 305.804 183.141V178.218C305.804 177.538 306.355 176.986 307.035 176.986H341.502C342.183 176.986 342.734 177.538 342.734 178.218V183.141C342.734 183.821 342.182 184.372 341.503 184.372Z" fill="white"/>
<path fill-rule="evenodd" clip-rule="evenodd" d="M345.169 245.629H235.987C234.682 245.625 233.432 245.105 232.51 244.182C231.587 243.259 231.068 242.009 231.064 240.704V211.598C231.068 210.294 231.588 209.044 232.51 208.121C233.433 207.198 234.682 206.678 235.987 206.674H345.169C346.474 206.678 347.724 207.198 348.647 208.12C349.569 209.043 350.089 210.293 350.093 211.598V240.704C350.09 242.01 349.57 243.26 348.646 244.183C347.723 245.106 346.473 245.626 345.167 245.629" fill="#BFCDDD"/>
<path d="M238.734 245.857H249.094M266.18 200.156H341.836H266.18ZM253.18 200.156H262.524H253.18ZM239.32 200.156H249.678H239.32ZM266.766 245.857H342.421H266.766ZM253.765 245.857H263.109H253.765Z" stroke="#7C90A5" stroke-width="1.124" stroke-linecap="round" stroke-linejoin="round"/>
<path fill-rule="evenodd" clip-rule="evenodd" d="M244.862 231.164C243.882 231.164 242.943 230.775 242.25 230.082C241.557 229.389 241.168 228.45 241.168 227.47C241.168 226.491 241.557 225.551 242.25 224.858C242.943 224.166 243.882 223.777 244.862 223.777C245.841 223.777 246.781 224.166 247.474 224.858C248.166 225.551 248.555 226.491 248.555 227.47C248.555 228.45 248.166 229.389 247.474 230.082C246.781 230.775 245.841 231.164 244.862 231.164ZM256.244 231.164C255.264 231.164 254.325 230.775 253.632 230.082C252.939 229.389 252.55 228.45 252.55 227.47C252.55 226.491 252.939 225.551 253.632 224.858C254.325 224.166 255.264 223.777 256.244 223.777C257.223 223.777 258.163 224.166 258.856 224.858C259.548 225.551 259.937 226.491 259.937 227.47C259.937 228.45 259.548 229.389 258.856 230.082C258.163 230.775 257.223 231.164 256.244 231.164ZM267.626 231.164C267.141 231.164 266.66 231.068 266.212 230.883C265.764 230.697 265.357 230.425 265.014 230.082C264.671 229.739 264.399 229.331 264.214 228.883C264.028 228.435 263.933 227.955 263.933 227.47C263.933 226.984 264.028 226.504 264.214 226.056C264.4 225.608 264.672 225.201 265.015 224.858C265.358 224.515 265.765 224.243 266.214 224.057C266.662 223.872 267.142 223.777 267.627 223.777C268.607 223.777 269.546 224.166 270.239 224.858C270.932 225.551 271.321 226.491 271.321 227.47C271.321 228.45 270.932 229.389 270.239 230.082C269.546 230.775 268.607 231.164 267.627 231.164H267.626ZM341.503 231.164H307.035C306.709 231.164 306.396 231.034 306.165 230.804C305.934 230.573 305.804 230.26 305.804 229.933V225.009C305.804 224.329 306.355 223.778 307.035 223.778H341.502C342.183 223.778 342.734 224.331 342.734 225.009V229.933C342.734 230.613 342.182 231.164 341.503 231.164ZM244.862 275.589C244.37 275.599 243.882 275.51 243.425 275.329C242.968 275.148 242.552 274.878 242.201 274.534C241.85 274.19 241.572 273.779 241.381 273.326C241.191 272.873 241.093 272.387 241.093 271.896C241.093 271.404 241.191 270.918 241.381 270.465C241.572 270.012 241.85 269.601 242.201 269.257C242.552 268.913 242.968 268.643 243.425 268.462C243.882 268.281 244.37 268.193 244.862 268.203C245.828 268.222 246.748 268.62 247.425 269.31C248.101 270.001 248.48 270.929 248.48 271.896C248.48 272.862 248.101 273.79 247.425 274.481C246.748 275.171 245.828 275.569 244.862 275.589ZM256.244 275.589C255.752 275.599 255.264 275.51 254.807 275.329C254.35 275.148 253.934 274.878 253.583 274.534C253.232 274.19 252.953 273.779 252.763 273.326C252.573 272.873 252.475 272.387 252.475 271.896C252.475 271.404 252.573 270.918 252.763 270.465C252.953 270.012 253.232 269.601 253.583 269.257C253.934 268.913 254.35 268.643 254.807 268.462C255.264 268.281 255.752 268.193 256.244 268.203C257.21 268.222 258.13 268.62 258.807 269.31C259.483 270.001 259.862 270.929 259.862 271.896C259.862 272.862 259.483 273.79 258.807 274.481C258.13 275.171 257.21 275.569 256.244 275.589ZM267.626 275.589C267.134 275.599 266.646 275.51 266.189 275.329C265.732 275.148 265.316 274.878 264.965 274.534C264.614 274.19 264.335 273.779 264.145 273.326C263.955 272.873 263.857 272.387 263.857 271.896C263.857 271.404 263.955 270.918 264.145 270.465C264.335 270.012 264.614 269.601 264.965 269.257C265.316 268.913 265.732 268.643 266.189 268.462C266.646 268.281 267.134 268.193 267.626 268.203C268.592 268.222 269.512 268.62 270.189 269.31C270.865 270.001 271.244 270.929 271.244 271.896C271.244 272.862 270.865 273.79 270.189 274.481C269.512 275.171 268.592 275.569 267.626 275.589ZM341.503 275.589H307.035C306.709 275.589 306.396 275.459 306.165 275.228C305.934 274.997 305.804 274.684 305.804 274.358V269.433C305.804 268.754 306.355 268.203 307.035 268.203H341.502C342.183 268.203 342.734 268.755 342.734 269.433V274.358C342.734 275.038 342.182 275.589 341.503 275.589Z" fill="white"/>
<path fill-rule="evenodd" clip-rule="evenodd" d="M311.581 338.692H269.576C268.598 338.689 267.66 338.299 266.968 337.607C266.276 336.915 265.887 335.977 265.884 334.998V317.43C265.887 316.452 266.277 315.514 266.969 314.822C267.66 314.13 268.598 313.74 269.576 313.737H311.581C312.56 313.739 313.498 314.129 314.19 314.822C314.882 315.514 315.272 316.452 315.275 317.43V334.997C315.272 335.975 314.882 336.914 314.19 337.606C313.498 338.298 312.56 338.688 311.581 338.69" fill="#BFCDDD"/>
<path d="M308.526 317.375V335.053M272.017 317.375V335.053V317.375Z" stroke="#A3B4C6" stroke-width="1.124" stroke-linecap="round" stroke-linejoin="round"/>
<path fill-rule="evenodd" clip-rule="evenodd" d="M249.941 410.488C246.106 410.488 242.429 408.965 239.717 406.254C237.006 403.542 235.482 399.864 235.482 396.03V373.287C235.522 369.478 237.062 365.838 239.77 363.159C242.477 360.479 246.133 358.976 249.942 358.976C253.751 358.976 257.407 360.479 260.114 363.159C262.822 365.838 264.362 369.478 264.402 373.287V396.03C264.401 399.864 262.877 403.542 260.166 406.254C257.454 408.965 253.776 410.488 249.941 410.488Z" fill="#5BA02E"/>
<path fill-rule="evenodd" clip-rule="evenodd" d="M262.75 410.39C260.851 410.39 258.971 410.016 257.216 409.29C255.462 408.563 253.868 407.498 252.525 406.155C251.183 404.812 250.118 403.218 249.391 401.464C248.665 399.709 248.291 397.829 248.291 395.93V390.654C248.33 386.845 249.871 383.205 252.578 380.526C255.286 377.846 258.941 376.343 262.751 376.343C266.56 376.343 270.215 377.846 272.923 380.526C275.63 383.205 277.171 386.845 277.21 390.654V395.93C277.21 399.765 275.687 403.443 272.975 406.154C270.264 408.866 266.586 410.39 262.751 410.39" fill="#92C110"/>
<path fill-rule="evenodd" clip-rule="evenodd" d="M278.234 450.037H235.708C235.061 450.037 234.421 449.91 233.823 449.662C233.226 449.415 232.683 449.052 232.225 448.595C231.768 448.137 231.405 447.594 231.158 446.996C230.911 446.399 230.783 445.758 230.784 445.111V413.398C230.783 412.751 230.911 412.111 231.158 411.513C231.405 410.915 231.768 410.372 232.225 409.915C232.683 409.457 233.226 409.095 233.823 408.847C234.421 408.599 235.061 408.472 235.708 408.472H278.233C278.88 408.472 279.52 408.599 280.118 408.847C280.715 409.095 281.258 409.457 281.715 409.915C282.173 410.372 282.535 410.915 282.783 411.513C283.03 412.111 283.157 412.751 283.157 413.398V445.115C283.157 446.421 282.638 447.673 281.715 448.597C280.791 449.52 279.539 450.039 278.233 450.039" fill="#F2D7AD"/>
</svg>
