<svg width="16" height="21" viewBox="0 0 16 21" fill="none" xmlns="http://www.w3.org/2000/svg">
<path d="M7.50994 6.3109e-10C5.5242 0.00165854 3.6198 0.789044 2.21269 2.19018C0.805584 3.59132 0.0101048 5.49235 0 7.47806C0 10.4553 1.67029 12.9479 2.89432 14.7649L3.11745 15.0964C4.33528 16.8614 5.64174 18.5636 7.0318 20.1965L7.51631 20.7639L8.00082 20.1965C9.3907 18.5635 10.6972 16.8613 11.9152 15.0964L12.1383 14.7585C13.356 12.9416 15.0262 10.4553 15.0262 7.47806C15.0161 5.49125 14.2198 3.58926 12.8113 2.18794C11.4028 0.786616 9.49678 -2.57276e-05 7.50994 6.3109e-10ZM7.50994 10.8378C6.68279 10.8378 5.87423 10.5925 5.18648 10.133C4.49874 9.67342 3.96271 9.02027 3.64618 8.25609C3.32964 7.49191 3.24682 6.65103 3.40819 5.83978C3.56956 5.02853 3.96786 4.28335 4.55274 3.69847C5.13762 3.11359 5.8828 2.71529 6.69405 2.55392C7.5053 2.39255 8.34618 2.47537 9.11036 2.7919C9.87454 3.10844 10.5277 3.64447 10.9872 4.33221C11.4468 5.01996 11.692 5.82852 11.692 6.65566C11.692 7.76483 11.2514 8.82856 10.4671 9.61286C9.68283 10.3972 8.6191 10.8378 7.50994 10.8378Z" fill="#238CD8"/>
<path d="M7.50977 9.03358C8.82307 9.03358 9.8877 7.96894 9.8877 6.65564C9.8877 5.34235 8.82307 4.27771 7.50977 4.27771C6.19647 4.27771 5.13184 5.34235 5.13184 6.65564C5.13184 7.96894 6.19647 9.03358 7.50977 9.03358Z" fill="#238CD8"/>
</svg>
