<svg width="25" height="27" viewBox="0 0 25 27" fill="none" xmlns="http://www.w3.org/2000/svg">
<path d="M24.4881 16.9319L22.5718 15.2443C22.6625 14.6717 22.7093 14.0871 22.7093 13.5024C22.7093 12.9178 22.6625 12.3332 22.5718 11.7606L24.4881 10.073C24.6327 9.94551 24.7361 9.77575 24.7847 9.58626C24.8333 9.39678 24.8248 9.19654 24.7602 9.01218L24.7339 8.93382C24.2063 7.41505 23.4163 6.00712 22.4021 4.77807L22.3494 4.71478C22.2264 4.56576 22.0624 4.45864 21.8791 4.40754C21.6958 4.35643 21.5017 4.36373 21.3225 4.42849L18.9439 5.29942C18.0662 4.55807 17.0861 3.97343 16.027 3.56358L15.5677 1.00202C15.533 0.809279 15.4422 0.63196 15.3074 0.493621C15.1726 0.355283 15.0001 0.262475 14.8128 0.227527L14.7338 0.212459C13.2095 -0.0708196 11.6063 -0.0708196 10.082 0.212459L10.003 0.227527C9.81572 0.262475 9.64322 0.355283 9.50839 0.493621C9.37357 0.63196 9.2828 0.809279 9.24814 1.00202L8.78588 3.57564C7.73523 3.98557 6.75681 4.5699 5.88944 5.30545L3.49329 4.42849C3.31414 4.36322 3.11995 4.35565 2.93652 4.40679C2.75309 4.45793 2.58911 4.56535 2.46637 4.71478L2.41371 4.77807C1.40067 6.00799 0.610822 7.41568 0.0819255 8.93382L0.0555942 9.01218C-0.0760623 9.38888 0.0321887 9.81078 0.327684 10.073L2.26742 11.7787C2.17673 12.3452 2.13284 12.9238 2.13284 13.4994C2.13284 14.078 2.17673 14.6567 2.26742 15.2202L0.327684 16.9259C0.183142 17.0534 0.0796916 17.2231 0.0310885 17.4126C-0.0175146 17.6021 -0.00896728 17.8023 0.0555942 17.9867L0.0819255 18.065C0.611477 19.5839 1.39556 20.9852 2.41371 22.2208L2.46637 22.2841C2.58941 22.4331 2.75339 22.5402 2.93671 22.5913C3.12003 22.6424 3.31408 22.6351 3.49329 22.5704L5.88944 21.6934C6.7613 22.4317 7.73556 23.0164 8.78588 23.4232L9.24814 25.9968C9.2828 26.1896 9.37357 26.3669 9.50839 26.5052C9.64322 26.6436 9.81572 26.7364 10.003 26.7713L10.082 26.7864C11.6203 27.0712 13.1955 27.0712 14.7338 26.7864L14.8128 26.7713C15.0001 26.7364 15.1726 26.6436 15.3074 26.5052C15.4422 26.3669 15.533 26.1896 15.5677 25.9968L16.027 23.4353C17.0857 23.0265 18.0713 22.44 18.9439 21.6994L21.3225 22.5704C21.5017 22.6356 21.6959 22.6432 21.8793 22.5921C22.0627 22.5409 22.2267 22.4335 22.3494 22.2841L22.4021 22.2208C23.4202 20.9822 24.2043 19.5839 24.7339 18.065L24.7602 17.9867C24.8919 17.616 24.7836 17.1941 24.4881 16.9319ZM20.4945 12.1162C20.5677 12.5712 20.6057 13.0383 20.6057 13.5055C20.6057 13.9726 20.5677 14.4397 20.4945 14.8947L20.3014 16.1032L22.4869 18.0289C22.1556 18.8151 21.7374 19.5593 21.2406 20.2469L18.5255 19.2554L17.6069 20.0329C16.9076 20.6236 16.1294 21.0877 15.2868 21.4132L14.1721 21.8441L13.6484 24.7673C12.8221 24.8637 11.9879 24.8637 11.1615 24.7673L10.6378 21.8381L9.53194 21.4011C8.69811 21.0756 7.9228 20.6115 7.22941 20.0239L6.31074 19.2434L3.57814 20.2439C3.08077 19.5538 2.66532 18.8094 2.33179 18.0259L4.54069 16.0821L4.35052 14.8766C4.2803 14.4276 4.24227 13.9635 4.24227 13.5055C4.24227 13.0444 4.27738 12.5833 4.35052 12.1343L4.54069 10.9288L2.33179 8.98505C2.66239 8.1985 3.08077 7.45716 3.57814 6.76704L6.31074 7.76756L7.22941 6.98704C7.9228 6.39938 8.69811 5.93529 9.53194 5.60982L10.6408 5.17887L11.1645 2.24965C11.9866 2.15322 12.8263 2.15322 13.6513 2.24965L14.175 5.17285L15.2897 5.60379C16.1294 5.92926 16.9106 6.39336 17.6098 6.98402L18.5285 7.76153L21.2435 6.77006C21.7409 7.46017 22.1563 8.20453 22.4899 8.98807L20.3044 10.9138L20.4945 12.1162ZM12.4108 7.90016C9.56704 7.90016 7.26159 10.2749 7.26159 13.2041C7.26159 16.1333 9.56704 18.508 12.4108 18.508C15.2546 18.508 17.5601 16.1333 17.5601 13.2041C17.5601 10.2749 15.2546 7.90016 12.4108 7.90016ZM14.728 15.5909C14.4241 15.9048 14.0629 16.1538 13.6652 16.3234C13.2675 16.493 12.8412 16.58 12.4108 16.5793C11.536 16.5793 10.7139 16.2267 10.0937 15.5909C9.78888 15.2778 9.54719 14.9058 9.3825 14.4962C9.21781 14.0866 9.13337 13.6474 9.13404 13.2041C9.13404 12.303 9.47635 11.4562 10.0937 10.8173C10.7139 10.1784 11.536 9.82886 12.4108 9.82886C13.2856 9.82886 14.1077 10.1784 14.728 10.8173C15.0328 11.1304 15.2745 11.5024 15.4391 11.912C15.6038 12.3216 15.6883 12.7607 15.6876 13.2041C15.6876 14.1052 15.3453 14.952 14.728 15.5909Z" fill="#DCDCDC"/>
</svg>
