<svg width="150" height="151" viewBox="0 0 150 151" fill="none" xmlns="http://www.w3.org/2000/svg">
<path fill-rule="evenodd" clip-rule="evenodd" d="M39.9028 14.3624C45.9184 13.8821 51.6291 11.516 56.2217 7.60103C61.4087 3.18317 67.9995 0.756836 74.813 0.756836C81.6265 0.756836 88.2173 3.18317 93.4044 7.60103C97.9969 11.516 103.708 13.8821 109.723 14.3624C116.517 14.9053 122.895 17.8503 127.714 22.6693C132.533 27.4883 135.478 33.8662 136.02 40.6596C136.497 46.6728 138.863 52.3868 142.782 56.9785C147.2 62.1656 149.626 68.7564 149.626 75.5698C149.626 82.3833 147.2 88.9741 142.782 94.1612C138.867 98.7538 136.501 104.464 136.02 110.48C135.478 117.274 132.533 123.651 127.714 128.47C122.895 133.289 116.517 136.234 109.723 136.777C103.708 137.258 97.9969 139.624 93.4044 143.539C88.2173 147.957 81.6265 150.383 74.813 150.383C67.9995 150.383 61.4087 147.957 56.2217 143.539C51.6291 139.624 45.9184 137.258 39.9028 136.777C33.1093 136.234 26.7314 133.289 21.9124 128.47C17.0934 123.651 14.1485 117.274 13.6055 110.48C13.1252 104.464 10.7591 98.7538 6.8442 94.1612C2.42633 88.9741 0 82.3833 0 75.5698C0 68.7564 2.42633 62.1656 6.8442 56.9785C10.7591 52.3859 13.1252 46.6752 13.6055 40.6596C14.1485 33.8662 17.0934 27.4883 21.9124 22.6693C26.7314 17.8503 33.1093 14.9053 39.9028 14.3624ZM109.48 63.478C111.184 61.7142 112.126 59.3519 112.105 56.8999C112.084 54.4479 111.1 52.1024 109.366 50.3685C107.632 48.6346 105.287 47.651 102.835 47.6297C100.383 47.6084 98.0204 48.551 96.2567 50.2546L65.4612 81.05L53.3694 68.9581C51.6056 67.2546 49.2433 66.312 46.7913 66.3333C44.3393 66.3546 41.9937 67.3382 40.2598 69.0721C38.526 70.8059 37.5424 73.1515 37.5211 75.6035C37.4998 78.0555 38.4424 80.4178 40.1459 82.1816L58.8495 100.885C60.6032 102.638 62.9815 103.623 65.4612 103.623C67.941 103.623 70.3192 102.638 72.0729 100.885L109.48 63.478Z" fill="#0DCE71"/>
</svg>
