<svg width="28" height="20" viewBox="0 0 28 20" fill="none" xmlns="http://www.w3.org/2000/svg">
<path d="M1.35916 0H25.8241C26.1845 0 26.5302 0.117063 26.7851 0.325437C27.04 0.533811 27.1832 0.816426 27.1832 1.11111V18.8889C27.1832 19.1836 27.04 19.4662 26.7851 19.6746C26.5302 19.8829 26.1845 20 25.8241 20H1.35916C0.998689 20 0.652981 19.8829 0.398089 19.6746C0.143197 19.4662 0 19.1836 0 18.8889V1.11111C0 0.816426 0.143197 0.533811 0.398089 0.325437C0.652981 0.117063 0.998689 0 1.35916 0ZM12.2325 6.11111V13.8889H14.9508V6.11111H12.2325ZM11.8451 6.11111H8.97182L6.93716 10.6811L4.90249 6.11111H2.02923L5.578 13.8489H8.29632L11.8451 6.11111ZM19.0283 11.6667H21.067C21.9682 11.6667 22.8325 11.374 23.4697 10.8531C24.1069 10.3321 24.4649 9.6256 24.4649 8.88889C24.4649 8.15218 24.1069 7.44564 23.4697 6.9247C22.8325 6.40377 21.9682 6.11111 21.067 6.11111H16.3099V13.8889H19.0283V11.6667ZM19.0283 9.44444V8.33333H21.067C21.2472 8.33333 21.4201 8.39186 21.5475 8.49605C21.675 8.60024 21.7466 8.74155 21.7466 8.88889C21.7466 9.03623 21.675 9.17754 21.5475 9.28173C21.4201 9.38591 21.2472 9.44444 21.067 9.44444H19.0283Z" fill="#DCDCDC"/>
</svg>
