<svg width="28" height="27" viewBox="0 0 28 27" fill="none" xmlns="http://www.w3.org/2000/svg">
<path d="M13.75 0C6.29336 0 0.25 6.04336 0.25 13.5V26.1562C0.25 26.6238 0.626172 27 1.09375 27H7.5625C8.80352 27 9.8125 25.991 9.8125 24.75V17.4375C9.8125 16.1965 8.80352 15.1875 7.5625 15.1875H2.78125V13.5C2.78125 7.44258 7.69258 2.53125 13.75 2.53125C19.8074 2.53125 24.7188 7.44258 24.7188 13.5V15.1875H19.9375C18.6965 15.1875 17.6875 16.1965 17.6875 17.4375V24.75C17.6875 25.991 18.6965 27 19.9375 27H26.4062C26.8738 27 27.25 26.6238 27.25 26.1562V13.5C27.25 6.04336 21.2066 0 13.75 0Z" fill="#4E4A49"/>
</svg>
