<svg width="91" height="107" viewBox="0 0 91 107" fill="none" xmlns="http://www.w3.org/2000/svg">
<path d="M55.3839 0H35.5381C32.8093 0 30.5766 2.29286 30.5766 5.09524C30.5766 7.89762 32.8093 10.1905 35.5381 10.1905H55.3839C58.1127 10.1905 60.3453 7.89762 60.3453 5.09524C60.3453 2.29286 58.1127 0 55.3839 0ZM80.34 32.5586L84.0611 28.7371C84.9785 27.7892 85.4934 26.507 85.4934 25.1705C85.4934 23.834 84.9785 22.5518 84.0611 21.6038L84.0115 21.5529C83.0884 20.6107 81.8399 20.0819 80.5384 20.0819C79.237 20.0819 77.9885 20.6107 77.0654 21.5529L73.3443 25.3743C65.4424 18.8438 55.6038 15.2841 45.461 15.2857C21.646 15.2857 1.40327 35.4629 0.807898 59.92C0.647446 66.0445 1.68394 72.1399 3.85614 77.8461C6.02835 83.5523 9.29219 88.7535 13.4548 93.1424C17.6175 97.5313 22.5945 101.019 28.0918 103.399C33.589 105.779 39.4951 107.004 45.461 107C53.8672 107.005 62.1038 104.571 69.222 99.9785C76.3403 95.3864 82.0507 88.8227 85.6955 81.0435C89.3404 73.2643 90.7715 64.586 89.824 56.0081C88.8765 47.4302 85.589 39.3017 80.34 32.5586ZM45.461 96.8095C26.2602 96.8095 10.7308 80.8614 10.7308 61.1429C10.7308 41.4243 26.2602 25.4762 45.461 25.4762C64.6618 25.4762 80.1911 41.4243 80.1911 61.1429C80.1911 80.8614 64.6618 96.8095 45.461 96.8095Z" fill="#EAEAEA" fill-opacity="0.56"/>
<path d="M49.9484 57.8607C48.0083 59.8254 47.9863 63.0727 49.8994 65.0771C51.8125 67.0814 54.965 67.1139 56.9051 65.1492L71.0146 50.8606C72.9547 48.8959 72.9767 45.6485 71.0636 43.6442C69.1505 41.6399 65.998 41.6074 64.0579 43.5721L49.9484 57.8607Z" fill="#F3F3F3"/>
</svg>
