<svg width="23" height="26" viewBox="0 0 23 26" fill="none" xmlns="http://www.w3.org/2000/svg">
<path d="M20.4249 8.93589C21.102 8.93589 21.7514 8.6669 22.2302 8.1881C22.709 7.7093 22.978 7.05991 22.978 6.38278V2.55311C22.978 1.87598 22.709 1.22659 22.2302 0.747789C21.7514 0.268988 21.102 0 20.4249 0H15.3187C14.6416 0 13.9922 0.268988 13.5134 0.747789C13.0346 1.22659 12.7656 1.87598 12.7656 2.55311V6.38278C12.7656 7.05991 13.0346 7.7093 13.5134 8.1881C13.9922 8.6669 14.6416 8.93589 15.3187 8.93589H20.4249ZM20.4249 6.38278H15.3187V2.55311H20.4249V6.38278ZM20.4249 25.5311C21.102 25.5311 21.7514 25.2621 22.2302 24.7833C22.709 24.3045 22.978 23.6551 22.978 22.978V12.7656C22.978 12.0884 22.709 11.439 22.2302 10.9602C21.7514 10.4814 21.102 10.2124 20.4249 10.2124H15.3187C14.6416 10.2124 13.9922 10.4814 13.5134 10.9602C13.0346 11.439 12.7656 12.0884 12.7656 12.7656V22.978C12.7656 23.6551 13.0346 24.3045 13.5134 24.7833C13.9922 25.2621 14.6416 25.5311 15.3187 25.5311H20.4249ZM20.4249 22.978H15.3187V12.7656H20.4249V22.978ZM10.2125 22.978C10.2125 23.6551 9.94348 24.3045 9.46467 24.7833C8.98587 25.2621 8.33648 25.5311 7.65935 25.5311H2.55313C1.876 25.5311 1.22661 25.2621 0.747805 24.7833C0.269003 24.3045 1.52588e-05 23.6551 1.52588e-05 22.978V20.4249C1.52588e-05 19.7478 0.269003 19.0984 0.747805 18.6196C1.22661 18.1408 1.876 17.8718 2.55313 17.8718H7.65935C8.33648 17.8718 8.98587 18.1408 9.46467 18.6196C9.94348 19.0984 10.2125 19.7478 10.2125 20.4249V22.978ZM2.55313 22.978H7.65935V20.4249H2.55313V22.978ZM7.65935 15.3187C8.33648 15.3187 8.98587 15.0497 9.46467 14.5709C9.94348 14.0921 10.2125 13.4427 10.2125 12.7656V2.55311C10.2125 1.87598 9.94348 1.22659 9.46467 0.747789C8.98587 0.268988 8.33648 0 7.65935 0H2.55313C1.876 0 1.22661 0.268988 0.747805 0.747789C0.269003 1.22659 1.52588e-05 1.87598 1.52588e-05 2.55311V12.7656C1.52588e-05 13.4427 0.269003 14.0921 0.747805 14.5709C1.22661 15.0497 1.876 15.3187 2.55313 15.3187H7.65935ZM7.65935 12.7656H2.55313V2.55311H7.65935V12.7656Z" fill="#DCDCDC"/>
</svg>
